<svg width="145" height="27" viewBox="0 0 145 27" fill="none" xmlns="http://www.w3.org/2000/svg">
<path d="M25.0855 0H15.498L15.498 26.9949H25.0855L25.0855 0Z" fill="black"/>
<path d="M9.6229 0H0L2.01097e-07 26.9949H9.6229L9.6229 0Z" fill="black"/>
<path d="M42.7798 16.9177L42.7798 19.3332H53.012L53.012 27H33.2278L33.2278 0H52.4736L52.4736 7.66679H42.7798L42.7798 9.97016" fill="black"/>
<path d="M60.0782 0H70.782L76.3616 13.1908L76.3616 0H84.8692L84.8692 27H75.7382L68.6151 12.2745L68.6151 27H60.0782L60.0782 0Z" fill="black"/>
<path d="M111.826 16.2397C114.135 14.9183 115.61 12.8019 115.61 9.25689L115.61 9.11546C115.61 3.26207 112.059 0.000976562 104.369 0.000976562H93.0518L93.0518 26.9999H102.604L102.604 18.4269H103.141L107.144 26.9999H117.127L111.826 16.2397Z" fill="black"/>
<path d="M135.588 0L135.344 0.72435C135.334 0.742534 135.326 0.760719 135.319 0.779914L134.785 2.37611L132.402 9.40847L129.511 0.72435L129.282 0H118.903L127.212 15.5558L127.212 26.9949H136.85L136.85 15.5205L144.779 0H135.587H135.588Z" fill="black"/>
<path d="M100.772 9.33767C92.9752 9.89432 84.8482 10.5985 76.5136 11.4541C60.8992 13.0544 45.3424 15.1476 29.8434 17.7329C19.8298 19.419 9.85164 21.394 1.1811e-07 23.9105L5.44718e-08 15.3679C7.65035 14.294 16.076 13.2817 25.0855 12.3755C35.7387 11.3016 47.1885 10.3499 59.1351 9.6357C73.8873 8.7295 87.9492 8.21326 100.692 8.05566L100.692 8.77496C100.692 8.96186 100.723 9.12956 100.748 9.2811C100.752 9.3013 100.761 9.3205 100.773 9.33666L100.772 9.33767Z" fill="#FFFF00"/>
<path d="M107.727 8.60838C107.705 8.70132 107.673 8.79123 107.631 8.8771C107.513 9.08926 107.337 9.26504 107.124 9.38324C105.985 10.0116 104.716 10.3682 103.416 10.4268H103.106C103.022 10.6986 102.9 10.9562 102.741 11.1916C102.086 12.0877 100.971 11.3179 100.971 11.3179C100.971 11.3179 101.194 11.3431 101.564 10.9532C101.748 10.7562 101.869 10.5097 101.914 10.244C101.54 10.0146 101.308 9.61358 101.294 9.17513L101.294 9.12462C101.291 9.10138 101.291 9.07713 101.294 9.0539C101.294 8.92257 101.259 8.77507 101.249 8.61848C101.237 8.38915 101.237 8.15882 101.249 7.92949C101.254 7.8325 101.264 7.73653 101.279 7.64056C101.312 7.3587 101.46 7.10311 101.69 6.93641C101.603 6.69799 101.452 6.48786 101.254 6.32925C100.833 5.99991 100.614 6.13225 100.614 6.05042C100.614 6.05042 101.628 5.13413 102.379 5.92919C102.56 6.12518 102.711 6.34441 102.831 6.58283L103.161 6.54747C104.454 6.42119 105.76 6.59394 106.975 7.0536C107.314 7.18292 107.58 7.45265 107.706 7.7931C107.751 7.91029 107.778 8.03254 107.787 8.15781C107.793 8.31035 107.772 8.4629 107.726 8.60838H107.727Z" fill="#FAFAFA"/>
</svg>
